<?xml version="1.0" encoding="UTF-8" standalone="no"?>
<!-- Created with Inkscape (http://www.inkscape.org/) -->
<svg
   xmlns:dc="http://purl.org/dc/elements/1.1/"
   xmlns:cc="http://creativecommons.org/ns#"
   xmlns:rdf="http://www.w3.org/1999/02/22-rdf-syntax-ns#"
   xmlns:svg="http://www.w3.org/2000/svg"
   xmlns="http://www.w3.org/2000/svg"
   xmlns:sodipodi="http://sodipodi.sourceforge.net/DTD/sodipodi-0.dtd"
   xmlns:inkscape="http://www.inkscape.org/namespaces/inkscape"
   width="744.09448819"
   height="1052.3622047"
   id="svg4703"
   sodipodi:version="0.32"
   inkscape:version="0.46"
   sodipodi:docname="All.svg"
   inkscape:output_extension="org.inkscape.output.svg.inkscape"
   inkscape:export-filename="/media/webbox/snapframework.com/w1/img/logos.png"
   inkscape:export-xdpi="90"
   inkscape:export-ydpi="90">
  <defs
     id="defs4705">
    <inkscape:perspective
       sodipodi:type="inkscape:persp3d"
       inkscape:vp_x="0 : 526.18109 : 1"
       inkscape:vp_y="0 : 1000 : 0"
       inkscape:vp_z="744.09448 : 526.18109 : 1"
       inkscape:persp3d-origin="372.04724 : 350.78739 : 1"
       id="perspective4711" />
  </defs>
  <sodipodi:namedview
     id="base"
     pagecolor="#ffffff"
     bordercolor="#666666"
     borderopacity="1.0"
     gridtolerance="10000"
     guidetolerance="10"
     objecttolerance="10"
     inkscape:pageopacity="0.0"
     inkscape:pageshadow="2"
     inkscape:zoom="1"
     inkscape:cx="375"
     inkscape:cy="-147.14286"
     inkscape:document-units="px"
     inkscape:current-layer="layer1"
     showgrid="false"
     inkscape:window-width="1670"
     inkscape:window-height="998"
     inkscape:window-x="0"
     inkscape:window-y="0" />
  <metadata
     id="metadata4708">
    <rdf:RDF>
      <cc:Work
         rdf:about="">
        <dc:format>image/svg+xml</dc:format>
        <dc:type
           rdf:resource="http://purl.org/dc/dcmitype/StillImage" />
      </cc:Work>
    </rdf:RDF>
  </metadata>
  <g
     inkscape:label="Layer 1"
     inkscape:groupmode="layer"
     id="layer1">
    <path
       style="opacity:1;fill:#2e3436;fill-opacity:1;fill-rule:nonzero;stroke:none;stroke-width:2.49468255px;stroke-linecap:butt;stroke-linejoin:miter;marker:none;marker-start:none;marker-mid:none;marker-end:none;stroke-miterlimit:4;stroke-dashoffset:0;stroke-opacity:1;visibility:visible;display:inline;overflow:visible;enable-background:accumulate"
       d="M 95.00037,16.1875 L 26.18787,16.25 L 125.06287,187.5 L 26.25037,360.96875 L 48.25037,360.96875 L 147.06287,187.5 L 48.18787,16.25 L 58.18787,16.25 L 157.06287,187.5 L 58.25037,360.96875 L 80.25037,360.96875 L 179.06287,187.5 L 80.18787,16.25 L 90.18787,16.25 L 189.06287,187.5 L 90.25037,360.96875 L 112.25037,360.96875 L 211.06287,187.5 L 112.18787,16.25 L 121.28162,16.25 L 220.15662,187.5 L 121.34412,360.96875 L 190.12537,360.96875 L 254.37537,246.78125 L 320.28162,360.9375 L 389.06287,360.96875 L 190.12537,16.1875 L 159.00037,16.21875 L 159.00037,16.1875 L 127.00037,16.21875 L 127.00037,16.1875 L 95.00037,16.21875 L 95.00037,16.1875 z M 31.46912,370.34375 C 26.46914,370.34378 23.18787,373.15375 23.18787,377.59375 C 23.18788,385.07374 34.96912,385.73501 34.96912,391.375 C 34.96912,392.89499 33.57162,394.8125 30.53162,394.8125 C 27.85162,394.81249 25.34412,393.40375 23.34412,390.84375 L 23.34412,395.8125 C 25.62413,397.53249 28.00912,398.34375 30.96912,398.34375 C 35.36911,398.34378 38.62537,395.2175 38.62537,390.9375 C 38.62538,382.2575 26.81287,382.33374 26.81287,377.09375 C 26.81287,375.17377 28.63662,373.84375 31.15662,373.84375 C 32.99661,373.84376 35.21162,374.4875 37.53162,376.6875 L 37.53162,372.25 C 35.61162,370.96999 33.54912,370.34375 31.46912,370.34375 z M 328.75037,370.34375 C 319.91037,370.34378 314.12537,376.78376 314.12537,384.34375 C 314.12537,391.74377 319.73663,398.34375 328.65662,398.34375 C 337.89661,398.34378 343.43787,391.70374 343.43787,384.34375 C 343.43786,376.74379 337.75036,370.34375 328.75037,370.34375 z M 86.28162,370.53125 L 74.56287,397.96875 L 78.56287,397.96875 L 82.00037,389.9375 L 93.59412,389.9375 L 97.25037,397.96875 L 101.25037,397.96875 L 89.03162,370.53125 L 86.28162,370.53125 z M 197.59412,370.53125 L 185.87537,397.96875 L 189.87537,397.96875 L 193.31287,389.9375 L 204.90662,389.9375 L 208.56287,397.96875 L 212.56287,397.96875 L 200.37537,370.53125 L 197.59412,370.53125 z M 44.59412,370.6875 L 44.59412,397.96875 L 48.28162,397.96875 L 48.28162,376.96875 L 66.50037,397.96875 L 69.87537,397.96875 L 69.87537,370.6875 L 66.18787,370.6875 L 66.18787,391.8125 L 47.71912,370.6875 L 44.59412,370.6875 z M 105.78162,370.6875 L 105.78162,397.96875 L 109.68787,397.96875 L 109.68787,386.15625 L 113.78162,386.15625 C 120.10161,386.15625 122.96912,382.81125 122.96912,378.53125 C 122.96913,374.21127 120.24161,370.6875 114.28162,370.6875 L 105.78162,370.6875 z M 142.65662,370.6875 L 142.65662,397.96875 L 146.59412,397.96875 L 146.59412,385.28125 L 157.21912,385.28125 L 157.21912,381.78125 L 146.59412,381.78125 L 146.59412,374.21875 L 157.21912,374.21875 L 157.21912,370.6875 L 142.65662,370.6875 z M 163.12537,370.6875 L 163.12537,397.96875 L 167.06287,397.96875 L 167.06287,386.125 L 168.68787,386.125 C 170.68789,386.12498 172.33787,386.77501 175.93787,392.375 L 179.53162,397.96875 L 184.21912,397.96875 C 182.33912,395.36877 181.66037,394.4425 180.50037,392.5625 C 178.42034,389.16248 176.88662,386.64 174.40662,385 C 177.32661,383.83998 178.96912,381.50375 178.96912,378.34375 C 178.96911,373.62378 175.52036,370.6875 170.00037,370.6875 L 163.12537,370.6875 z M 217.21912,370.6875 L 217.21912,397.96875 L 221.12537,397.96875 L 221.12537,376.71875 L 221.21912,376.71875 L 229.59412,387.28125 L 230.25037,387.28125 L 238.65662,376.71875 L 238.71912,376.71875 L 238.71912,397.96875 L 242.65662,397.96875 L 242.65662,370.6875 L 239.00037,370.6875 L 229.93787,381.875 L 220.87537,370.6875 L 217.21912,370.6875 z M 250.21912,370.6875 L 250.21912,397.96875 L 266.06287,397.96875 L 266.06287,394.4375 L 254.15662,394.4375 L 254.15662,385.96875 L 265.31287,385.96875 L 265.31287,382.4375 L 254.15662,382.4375 L 254.15662,374.21875 L 265.68787,374.21875 L 265.68787,370.6875 L 250.21912,370.6875 z M 268.90662,370.6875 L 279.93787,398.21875 L 280.71912,398.21875 L 289.75037,375.875 L 298.71912,398.21875 L 299.46912,398.21875 L 310.53162,370.6875 L 306.65662,370.6875 L 299.21912,389.5 L 291.62537,370.6875 L 287.90662,370.6875 L 280.34412,389.5 L 272.81287,370.6875 L 268.90662,370.6875 z M 349.96912,370.6875 L 349.96912,397.96875 L 353.87537,397.96875 L 353.87537,386.125 L 355.53162,386.125 C 357.53162,386.12498 359.18162,386.77501 362.78162,392.375 L 366.37537,397.96875 L 371.03162,397.96875 C 369.15161,395.36877 368.47287,394.4425 367.31287,392.5625 C 365.23289,389.16248 363.73037,386.64 361.25037,385 C 364.17034,383.83998 365.81287,381.50375 365.81287,378.34375 C 365.81285,373.62378 362.36411,370.6875 356.84412,370.6875 L 349.96912,370.6875 z M 375.71912,370.6875 L 375.71912,397.96875 L 379.62537,397.96875 L 379.62537,384.5 L 393.50037,397.96875 L 398.90662,397.96875 L 384.12537,383.59375 L 396.00037,370.6875 L 391.12537,370.6875 L 379.62537,383.15625 L 379.62537,370.6875 L 375.71912,370.6875 z M 328.75037,373.9375 C 334.87035,373.93749 339.37537,378.34376 339.37537,384.34375 C 339.37534,390.30377 334.87036,394.71875 328.75037,394.71875 C 322.67036,394.71875 318.15662,390.30374 318.15662,384.34375 C 318.15664,378.34379 322.67038,373.9375 328.75037,373.9375 z M 167.06287,374.0625 L 169.56287,374.0625 C 173.36288,374.0625 174.89787,375.59625 174.93787,378.15625 C 174.9779,380.43625 173.76287,382.59375 169.56287,382.59375 L 167.06287,382.59375 L 167.06287,374.0625 z M 353.87537,374.0625 L 356.40662,374.0625 C 360.20662,374.0625 361.74162,375.59625 361.78162,378.15625 C 361.82164,380.43625 360.60662,382.59375 356.40662,382.59375 L 353.87537,382.59375 L 353.87537,374.0625 z M 109.68787,374.21875 L 114.28162,374.21875 C 117.84162,374.21877 118.93787,376.375 118.93787,378.375 C 118.93786,381.09499 117.04537,382.65625 114.12537,382.65625 L 109.68787,382.65625 L 109.68787,374.21875 z M 87.59412,376.53125 L 92.00037,386.40625 L 83.53162,386.40625 L 87.59412,376.53125 z M 198.90662,376.53125 L 203.31287,386.40625 L 194.84412,386.40625 L 198.90662,376.53125 z M 126.65662,387.28125 L 126.65662,391 L 136.37537,391 L 136.37537,387.28125 L 126.65662,387.28125 z"
       id="rect3168" />
    <path
       style="opacity:1;fill:#2e3436;fill-opacity:1;fill-rule:nonzero;stroke:none;stroke-width:2.49468255px;stroke-linecap:butt;stroke-linejoin:miter;marker:none;marker-start:none;marker-mid:none;marker-end:none;stroke-miterlimit:4;stroke-dasharray:none;stroke-dashoffset:0;stroke-opacity:1;visibility:visible;display:inline;overflow:visible;enable-background:accumulate"
       d="M 144.06287,469.3125 L 87.21912,469.375 L 168.87537,610.8125 L 87.25037,754.09375 L 144.06287,754.09375 L 197.12537,659.78125 L 251.56287,754.09375 L 308.37537,754.09375 L 144.06287,469.3125 z M 195.90662,477.1875 C 182.00149,477.23266 168.22236,479.67597 155.12537,484.125 C 161.78024,495.66458 168.43851,507.21082 175.09412,518.75 C 179.02287,517.79476 183.02182,517.07155 187.06287,516.65625 C 190.80144,516.24217 194.55038,515.99727 198.31287,516 C 236.7885,515.62643 273.92412,540.8114 287.78162,576.75 C 300.16472,607.59152 295.4093,644.88092 274.84412,671.09375 C 272.6468,673.986 270.26321,676.73461 267.75037,679.34375 C 274.10626,690.35503 280.48743,701.36421 286.84412,712.375 C 306.78205,694.90172 321.72482,671.77752 328.03162,645.5625 C 338.34512,607.45115 330.12132,565.07492 307.00037,533.21875 C 282.45957,498.37993 240.56091,477.01469 197.93787,477.1875 C 197.2613,477.19024 196.58346,477.17385 195.90662,477.1875 z M 108.68787,510.9375 C 96.19471,521.88528 85.71921,535.11167 78.18787,549.96875 C 57.54677,589.60214 58.32678,639.89718 81.00037,678.5 C 88.23446,691.20315 97.6276,702.60577 108.56287,712.28125 C 114.94628,701.06999 121.33468,689.86693 127.71912,678.65625 C 121.45677,672.04497 116.1101,664.53966 112.03162,656.3125 C 97.25243,627.53068 98.03934,591.28178 114.90662,563.5625 C 118.74567,557.01686 123.37836,550.9782 128.65662,545.53125 C 122.00386,534.00801 115.34066,522.46073 108.68787,510.9375 z M 31.46912,773.1875 C 26.46911,773.18751 23.18787,776.02875 23.18787,780.46875 C 23.18788,787.94875 34.96912,788.61001 34.96912,794.25 C 34.96915,795.77 33.57162,797.6875 30.53162,797.6875 C 27.85165,797.6875 25.34412,796.27875 23.34412,793.71875 L 23.34412,798.6875 C 25.6241,800.4075 28.00912,801.1875 30.96912,801.1875 C 35.36914,801.18751 38.62537,798.0925 38.62537,793.8125 C 38.62538,785.13251 26.81287,785.20874 26.81287,779.96875 C 26.81287,778.04875 28.63662,776.71875 31.15662,776.71875 C 32.99661,776.71874 35.21162,777.3625 37.53162,779.5625 L 37.53162,775.125 C 35.61165,773.845 33.54912,773.1875 31.46912,773.1875 z M 328.75037,773.1875 C 319.91037,773.18751 314.12537,779.62751 314.12537,787.1875 C 314.12537,794.5875 319.73663,801.1875 328.65662,801.1875 C 337.89661,801.18751 343.43787,794.54749 343.43787,787.1875 C 343.43786,779.58752 337.75036,773.1875 328.75037,773.1875 z M 86.28162,773.40625 L 74.56287,800.84375 L 78.56287,800.84375 L 82.00037,792.8125 L 93.59412,792.8125 L 97.25037,800.84375 L 101.25037,800.84375 L 89.03162,773.40625 L 86.28162,773.40625 z M 197.59412,773.40625 L 185.87537,800.84375 L 189.87537,800.84375 L 193.31287,792.8125 L 204.90662,792.8125 L 208.56287,800.84375 L 212.56287,800.84375 L 200.37537,773.40625 L 197.59412,773.40625 z M 44.59412,773.5625 L 44.59412,800.84375 L 48.28162,800.84375 L 48.28162,779.84375 L 66.50037,800.84375 L 69.87537,800.84375 L 69.87537,773.5625 L 66.18787,773.5625 L 66.18787,794.6875 L 47.71912,773.5625 L 44.59412,773.5625 z M 105.78162,773.5625 L 105.78162,800.84375 L 109.68787,800.84375 L 109.68787,789.03125 L 113.78162,789.03125 C 120.10164,789.03126 122.96912,785.68625 122.96912,781.40625 C 122.96913,777.08625 120.24161,773.5625 114.28162,773.5625 L 105.78162,773.5625 z M 142.65662,773.5625 L 142.65662,800.84375 L 146.59412,800.84375 L 146.59412,788.15625 L 157.21912,788.15625 L 157.21912,784.625 L 146.59412,784.625 L 146.59412,777.0625 L 157.21912,777.0625 L 157.21912,773.5625 L 142.65662,773.5625 z M 163.12537,773.5625 L 163.12537,800.84375 L 167.06287,800.84375 L 167.06287,789 L 168.68787,789 C 170.68789,788.99999 172.33787,789.65001 175.93787,795.25 L 179.53162,800.84375 L 184.21912,800.84375 C 182.33912,798.24375 181.66037,797.3175 180.50037,795.4375 C 178.42034,792.03749 176.88662,789.515 174.40662,787.875 C 177.32661,786.71499 178.96912,784.3475 178.96912,781.1875 C 178.96911,776.46751 175.52036,773.5625 170.00037,773.5625 L 163.12537,773.5625 z M 217.21912,773.5625 L 217.21912,800.84375 L 221.12537,800.84375 L 221.12537,779.59375 L 221.21912,779.59375 L 229.59412,790.15625 L 230.25037,790.15625 L 238.65662,779.59375 L 238.71912,779.59375 L 238.71912,800.84375 L 242.65662,800.84375 L 242.65662,773.5625 L 239.00037,773.5625 L 229.93787,784.75 L 220.87537,773.5625 L 217.21912,773.5625 z M 250.21912,773.5625 L 250.21912,800.84375 L 266.06287,800.84375 L 266.06287,797.3125 L 254.15662,797.3125 L 254.15662,788.84375 L 265.31287,788.84375 L 265.31287,785.3125 L 254.15662,785.3125 L 254.15662,777.0625 L 265.68787,777.0625 L 265.68787,773.5625 L 250.21912,773.5625 z M 268.90662,773.5625 L 279.93787,801.0625 L 280.71912,801.0625 L 289.75037,778.75 L 298.71912,801.0625 L 299.46912,801.0625 L 310.53162,773.5625 L 306.65662,773.5625 L 299.21912,792.34375 L 291.62537,773.5625 L 287.90662,773.5625 L 280.34412,792.34375 L 272.81287,773.5625 L 268.90662,773.5625 z M 349.96912,773.5625 L 349.96912,800.84375 L 353.87537,800.84375 L 353.87537,789 L 355.53162,789 C 357.53162,788.99999 359.18162,789.65001 362.78162,795.25 L 366.37537,800.84375 L 371.03162,800.84375 C 369.15161,798.24375 368.47287,797.3175 367.31287,795.4375 C 365.23289,792.03749 363.73037,789.515 361.25037,787.875 C 364.17034,786.71499 365.81287,784.3475 365.81287,781.1875 C 365.81285,776.46751 362.36411,773.5625 356.84412,773.5625 L 349.96912,773.5625 z M 375.71912,773.5625 L 375.71912,800.84375 L 379.62537,800.84375 L 379.62537,787.34375 L 393.50037,800.84375 L 398.90662,800.84375 L 384.12537,786.46875 L 396.00037,773.5625 L 391.12537,773.5625 L 379.62537,786.03125 L 379.62537,773.5625 L 375.71912,773.5625 z M 328.75037,776.8125 C 334.87035,776.8125 339.37537,781.18751 339.37537,787.1875 C 339.37534,793.1475 334.87036,797.59375 328.75037,797.59375 C 322.67036,797.59376 318.15662,793.14749 318.15662,787.1875 C 318.15664,781.18751 322.67038,776.8125 328.75037,776.8125 z M 167.06287,776.90625 L 169.56287,776.90625 C 173.36288,776.90626 174.89787,778.47125 174.93787,781.03125 C 174.9779,783.31126 173.76287,785.46875 169.56287,785.46875 L 167.06287,785.46875 L 167.06287,776.90625 z M 353.87537,776.90625 L 356.40662,776.90625 C 360.20662,776.90626 361.74162,778.47125 361.78162,781.03125 C 361.82164,783.31126 360.60662,785.46875 356.40662,785.46875 L 353.87537,785.46875 L 353.87537,776.90625 z M 109.68787,777.0625 L 114.28162,777.0625 C 117.84162,777.0625 118.93787,779.25 118.93787,781.25 C 118.93786,783.97 117.04537,785.53125 114.12537,785.53125 L 109.68787,785.53125 L 109.68787,777.0625 z M 87.59412,779.40625 L 92.00037,789.28125 L 83.53162,789.28125 L 87.59412,779.40625 z M 198.90662,779.40625 L 203.31287,789.28125 L 194.84412,789.28125 L 198.90662,779.40625 z M 126.65662,790.15625 L 126.65662,793.875 L 136.37537,793.875 L 136.37537,790.15625 L 126.65662,790.15625 z"
       id="path4034" />
    <path
       style="opacity:1;fill:#2e3436;fill-opacity:1;fill-rule:nonzero;stroke:none;stroke-width:2.49468255px;stroke-linecap:butt;stroke-linejoin:miter;marker:none;marker-start:none;marker-mid:none;marker-end:none;stroke-miterlimit:4;stroke-dasharray:none;stroke-dashoffset:0;stroke-opacity:1;visibility:visible;display:inline;overflow:visible;enable-background:accumulate"
       d="M 415.78115,483.7716 L 394.34005,483.79517 L 425.14027,537.14451 L 394.35183,591.1893 L 415.78115,591.1893 L 435.79599,555.61521 L 456.32948,591.1893 L 477.7588,591.1893 L 415.78115,483.7716 z M 435.33629,486.742 C 430.09137,486.75903 424.89396,487.68063 419.95386,489.35878 C 422.46404,493.71143 424.97549,498.0666 427.48595,502.41911 C 428.96785,502.0588 430.47622,501.78601 432.00048,501.62936 C 433.41065,501.47317 434.82473,501.3808 436.24391,501.38183 C 450.75668,501.24092 464.764,510.74053 469.99097,524.29635 C 474.66179,535.92957 472.86808,549.9949 465.11102,559.88222 C 464.28221,560.97316 463.38313,562.00991 462.4353,562.99407 C 464.8327,567.14745 467.23964,571.30005 469.63735,575.45325 C 477.15781,568.86243 482.79413,560.14013 485.17301,550.25199 C 489.0632,535.87663 485.96123,519.89258 477.24016,507.87663 C 467.98352,494.73565 452.17961,486.67681 436.10246,486.742 C 435.84727,486.74303 435.59159,486.73685 435.33629,486.742 z M 402.43792,499.47228 C 397.72559,503.60172 393.77429,508.59063 390.93352,514.19463 C 383.14783,529.14409 383.44204,548.11507 391.99437,562.67581 C 394.72303,567.46736 398.26606,571.76835 402.39077,575.41788 C 404.79856,571.18907 407.20822,566.96334 409.6164,562.73475 C 407.25428,560.24101 405.23755,557.41006 403.69917,554.30682 C 398.12455,543.4505 398.42137,529.77764 404.7836,519.3221 C 406.23167,516.85313 407.97908,514.57539 409.97001,512.52083 C 407.46064,508.17434 404.94731,503.81877 402.43792,499.47228 z M 373.3115,598.39134 C 371.42553,598.39134 370.18786,599.46304 370.18786,601.13778 C 370.18786,603.95919 374.63168,604.20861 374.63168,606.33598 C 374.63168,606.90932 374.10455,607.63259 372.95788,607.63259 C 371.94701,607.63259 371.00119,607.10121 370.2468,606.1356 L 370.2468,608.00978 C 371.10679,608.65855 372.00641,608.95276 373.1229,608.95276 C 374.78256,608.95277 376.01079,607.78535 376.01079,606.17096 C 376.01079,602.89692 371.55519,602.92568 371.55519,600.94918 C 371.55519,600.22497 372.2431,599.72331 373.19363,599.72331 C 373.88766,599.7233 374.72315,599.96612 375.59824,600.79595 L 375.59824,599.12215 C 374.87404,598.63934 374.09606,598.39134 373.3115,598.39134 z M 485.44412,598.39134 C 482.10973,598.39134 479.92766,600.82047 479.92766,603.67205 C 479.92766,606.46329 482.0442,608.95276 485.40876,608.95276 C 488.89403,608.95277 490.98415,606.44819 490.98415,603.67205 C 490.98415,600.80539 488.83886,598.39134 485.44412,598.39134 z M 393.98643,598.47385 L 389.56619,608.8231 L 391.07496,608.8231 L 392.37157,605.79377 L 396.74466,605.79377 L 398.12377,608.8231 L 399.63255,608.8231 L 395.02371,598.47385 L 393.98643,598.47385 z M 435.97281,598.47385 L 431.55256,608.8231 L 433.06134,608.8231 L 434.35794,605.79377 L 438.73104,605.79377 L 440.11015,608.8231 L 441.61892,608.8231 L 437.02187,598.47385 L 435.97281,598.47385 z M 378.26217,598.53279 L 378.26217,608.8231 L 379.65307,608.8231 L 379.65307,600.90204 L 386.52506,608.8231 L 387.79809,608.8231 L 387.79809,598.53279 L 386.40719,598.53279 L 386.40719,606.50101 L 379.4409,598.53279 L 378.26217,598.53279 z M 401.34171,598.53279 L 401.34171,608.8231 L 402.81512,608.8231 L 402.81512,604.3675 L 404.35926,604.3675 C 406.74313,604.36751 407.82473,603.10579 407.82473,601.4914 C 407.82473,599.86192 406.79593,598.53279 404.54785,598.53279 L 401.34171,598.53279 z M 415.25073,598.53279 L 415.25073,608.8231 L 416.73593,608.8231 L 416.73593,604.03746 L 420.74361,604.03746 L 420.74361,602.70549 L 416.73593,602.70549 L 416.73593,599.85297 L 420.74361,599.85297 L 420.74361,598.53279 L 415.25073,598.53279 z M 422.97141,598.53279 L 422.97141,608.8231 L 424.45661,608.8231 L 424.45661,604.35572 L 425.06955,604.35572 C 425.82394,604.35571 426.4463,604.6009 427.8042,606.71318 L 429.15975,608.8231 L 430.92784,608.8231 C 430.21872,607.8424 429.96269,607.49302 429.52515,606.7839 C 428.74058,605.50144 428.16207,604.54997 427.22663,603.93137 C 428.32803,603.49382 428.94757,602.60082 428.94757,601.40889 C 428.94757,599.62854 427.64672,598.53279 425.56461,598.53279 L 422.97141,598.53279 z M 443.37523,598.53279 L 443.37523,608.8231 L 444.84864,608.8231 L 444.84864,600.80774 L 444.88401,600.80774 L 448.04301,604.79185 L 448.29054,604.79185 L 451.46132,600.80774 L 451.4849,600.80774 L 451.4849,608.8231 L 452.9701,608.8231 L 452.9701,598.53279 L 451.59098,598.53279 L 448.17266,602.75264 L 444.75435,598.53279 L 443.37523,598.53279 z M 455.82263,598.53279 L 455.82263,608.8231 L 461.79879,608.8231 L 461.79879,607.49114 L 457.30783,607.49114 L 457.30783,604.29678 L 461.51589,604.29678 L 461.51589,602.96481 L 457.30783,602.96481 L 457.30783,599.85297 L 461.65734,599.85297 L 461.65734,598.53279 L 455.82263,598.53279 z M 462.87144,598.53279 L 467.03235,608.90562 L 467.32704,608.90562 L 470.73356,600.48948 L 474.11652,608.90562 L 474.39942,608.90562 L 478.57212,598.53279 L 477.1105,598.53279 L 474.30512,605.61696 L 471.4408,598.53279 L 470.03812,598.53279 L 467.18559,605.61696 L 464.34484,598.53279 L 462.87144,598.53279 z M 493.4477,598.53279 L 493.4477,608.8231 L 494.92111,608.8231 L 494.92111,604.35572 L 495.54584,604.35572 C 496.30023,604.35571 496.9226,604.6009 498.2805,606.71318 L 499.63603,608.8231 L 501.39234,608.8231 C 500.68321,607.8424 500.4272,607.49302 499.98965,606.7839 C 499.2051,605.50144 498.63836,604.54997 497.70291,603.93137 C 498.80431,603.49382 499.42386,602.60082 499.42386,601.40889 C 499.42386,599.62854 498.12301,598.53279 496.04091,598.53279 L 493.4477,598.53279 z M 503.16044,598.53279 L 503.16044,608.8231 L 504.63385,608.8231 L 504.63385,603.73099 L 509.86741,608.8231 L 511.90662,608.8231 L 506.33122,603.40094 L 510.8104,598.53279 L 508.97158,598.53279 L 504.63385,603.23592 L 504.63385,598.53279 L 503.16044,598.53279 z M 485.44412,599.75867 C 487.75254,599.75867 489.4518,601.40889 489.4518,603.67205 C 489.45179,605.92013 487.75254,607.59722 485.44412,607.59722 C 483.15078,607.59723 481.44823,605.92012 481.44823,603.67205 C 481.44823,601.40889 483.15078,599.75867 485.44412,599.75867 z M 424.45661,599.79403 L 425.39959,599.79403 C 426.83293,599.79403 427.41192,600.38434 427.42701,601.34995 C 427.44211,602.20996 426.98381,603.02375 425.39959,603.02375 L 424.45661,603.02375 L 424.45661,599.79403 z M 494.92111,599.79403 L 495.87589,599.79403 C 497.30922,599.79403 497.88822,600.38434 497.9033,601.34995 C 497.91839,602.20996 497.4601,603.02375 495.87589,603.02375 L 494.92111,603.02375 L 494.92111,599.79403 z M 402.81512,599.85297 L 404.54785,599.85297 C 405.89066,599.85297 406.30416,600.67808 406.30416,601.43246 C 406.30416,602.45843 405.59032,603.04733 404.48891,603.04733 L 402.81512,603.04733 L 402.81512,599.85297 z M 394.4815,600.73701 L 396.1435,604.4618 L 392.94915,604.4618 L 394.4815,600.73701 z M 436.46787,600.73701 L 438.12988,604.4618 L 434.93552,604.4618 L 436.46787,600.73701 z M 409.21563,604.79185 L 409.21563,606.19454 L 412.88148,606.19454 L 412.88148,604.79185 L 409.21563,604.79185 z"
       id="path4732" />
    <path
       style="opacity:1;fill:#2e3436;fill-opacity:1;fill-rule:nonzero;stroke:none;stroke-width:2.49468255px;stroke-linecap:butt;stroke-linejoin:miter;marker:none;marker-start:none;marker-mid:none;marker-end:none;stroke-miterlimit:4;stroke-dashoffset:0;stroke-opacity:1;visibility:visible;display:inline;overflow:visible;enable-background:accumulate"
       d="M 402.13087,20.28406 L 379.05457,20.30502 L 412.21234,77.73377 L 379.07553,135.90659 L 386.45324,135.90659 L 419.59005,77.73377 L 386.43228,20.30502 L 389.78579,20.30502 L 422.94356,77.73377 L 389.80675,135.90659 L 397.18445,135.90659 L 430.32127,77.73377 L 397.1635,20.30502 L 400.517,20.30502 L 433.67477,77.73377 L 400.53796,135.90659 L 407.91567,135.90659 L 441.05248,77.73377 L 407.89471,20.30502 L 410.9443,20.30502 L 444.10207,77.73377 L 410.96526,135.90659 L 434.03108,135.90659 L 455.57734,97.61377 L 477.67903,135.89611 L 500.74485,135.90659 L 434.03108,20.28406 L 423.5933,20.29454 L 423.5933,20.28406 L 412.86209,20.29454 L 412.86209,20.28406 L 402.13087,20.29454 L 402.13087,20.28406 z M 380.82565,139.0505 C 379.1489,139.05051 378.04852,139.99283 378.04852,141.48179 C 378.04853,143.99021 381.99937,144.21196 381.99937,146.10334 C 381.99937,146.61307 381.53072,147.2561 380.51126,147.2561 C 379.61251,147.2561 378.77163,146.78368 378.10092,145.92518 L 378.10092,147.59145 C 378.86553,148.16825 379.66533,148.44031 380.65797,148.44031 C 382.13351,148.44032 383.22549,147.39192 383.22549,145.95662 C 383.2255,143.04578 379.26417,143.07135 379.26417,141.31411 C 379.26417,140.67025 379.87577,140.22423 380.72085,140.22423 C 381.33789,140.22423 382.0807,140.44011 382.85871,141.17788 L 382.85871,139.68976 C 382.21483,139.26051 381.52317,139.0505 380.82565,139.0505 z M 480.51903,139.0505 C 477.55453,139.05051 475.61453,141.21016 475.61453,143.7454 C 475.61453,146.227 477.49627,148.44031 480.48759,148.44031 C 483.58623,148.44032 485.44449,146.21358 485.44449,143.7454 C 485.44449,141.19675 483.53718,139.0505 480.51903,139.0505 z M 399.20704,139.11338 L 395.27715,148.31455 L 396.61855,148.31455 L 397.77132,145.62127 L 401.65929,145.62127 L 402.88541,148.31455 L 404.22681,148.31455 L 400.12925,139.11338 L 399.20704,139.11338 z M 436.53573,139.11338 L 432.60584,148.31455 L 433.94724,148.31455 L 435.10001,145.62127 L 438.98798,145.62127 L 440.2141,148.31455 L 441.5555,148.31455 L 437.46842,139.11338 L 436.53573,139.11338 z M 385.22712,139.16578 L 385.22712,148.31455 L 386.46372,148.31455 L 386.46372,141.2722 L 392.57339,148.31455 L 393.70519,148.31455 L 393.70519,139.16578 L 392.46859,139.16578 L 392.46859,146.25005 L 386.27509,139.16578 L 385.22712,139.16578 z M 405.74637,139.16578 L 405.74637,148.31455 L 407.05633,148.31455 L 407.05633,144.35323 L 408.42918,144.35323 C 410.54859,144.35323 411.51021,143.23148 411.51021,141.79618 C 411.51021,140.34747 410.59554,139.16578 408.59685,139.16578 L 405.74637,139.16578 z M 418.11242,139.16578 L 418.11242,148.31455 L 419.43286,148.31455 L 419.43286,144.0598 L 422.99596,144.0598 L 422.99596,142.88607 L 419.43286,142.88607 L 419.43286,140.34998 L 422.99596,140.34998 L 422.99596,139.16578 L 418.11242,139.16578 z M 424.97662,139.16578 L 424.97662,148.31455 L 426.29706,148.31455 L 426.29706,144.34275 L 426.84201,144.34275 C 427.51271,144.34274 428.06603,144.56073 429.2733,146.43869 L 430.47846,148.31455 L 432.05042,148.31455 C 431.41996,147.44265 431.19234,147.13202 430.80333,146.50157 C 430.1058,145.36137 429.59146,144.51545 428.75979,143.96548 C 429.73901,143.57646 430.28983,142.79301 430.28983,141.7333 C 430.28983,140.15046 429.13329,139.16578 427.28215,139.16578 L 424.97662,139.16578 z M 443.11698,139.16578 L 443.11698,148.31455 L 444.42694,148.31455 L 444.42694,141.18836 L 444.45838,141.18836 L 447.26694,144.7305 L 447.48701,144.7305 L 450.30606,141.18836 L 450.32702,141.18836 L 450.32702,148.31455 L 451.64746,148.31455 L 451.64746,139.16578 L 450.42133,139.16578 L 447.38222,142.91751 L 444.3431,139.16578 L 443.11698,139.16578 z M 454.18355,139.16578 L 454.18355,148.31455 L 459.49675,148.31455 L 459.49675,147.13035 L 455.50399,147.13035 L 455.50399,144.29035 L 459.24524,144.29035 L 459.24524,143.10614 L 455.50399,143.10614 L 455.50399,140.34998 L 459.37099,140.34998 L 459.37099,139.16578 L 454.18355,139.16578 z M 460.45041,139.16578 L 464.14974,148.39839 L 464.41173,148.39839 L 467.44036,140.90541 L 470.44804,148.39839 L 470.69955,148.39839 L 474.40937,139.16578 L 473.10988,139.16578 L 470.61571,145.47455 L 468.06914,139.16578 L 466.82206,139.16578 L 464.28598,145.47455 L 461.76037,139.16578 L 460.45041,139.16578 z M 487.63475,139.16578 L 487.63475,148.31455 L 488.94471,148.31455 L 488.94471,144.34275 L 489.50013,144.34275 C 490.17083,144.34274 490.72416,144.56073 491.93142,146.43869 L 493.13659,148.31455 L 494.69807,148.31455 C 494.0676,147.44265 493.83998,147.13202 493.45098,146.50157 C 492.75346,145.36137 492.24959,144.51545 491.41792,143.96548 C 492.39713,143.57646 492.94795,142.79301 492.94795,141.7333 C 492.94795,140.15046 491.79141,139.16578 489.94028,139.16578 L 487.63475,139.16578 z M 496.27002,139.16578 L 496.27002,148.31455 L 497.57998,148.31455 L 497.57998,143.7978 L 502.23297,148.31455 L 504.04596,148.31455 L 499.08906,143.49389 L 503.07134,139.16578 L 501.43651,139.16578 L 497.57998,143.34718 L 497.57998,139.16578 L 496.27002,139.16578 z M 480.51903,140.25566 C 482.57137,140.25566 484.08213,141.73331 484.08213,143.7454 C 484.08212,145.7441 482.57137,147.22466 480.51903,147.22466 C 478.48009,147.22466 476.96641,145.74409 476.96641,143.7454 C 476.96642,141.73332 478.4801,140.25566 480.51903,140.25566 z M 426.29706,140.29758 L 427.13544,140.29758 C 428.40977,140.29758 428.92453,140.81193 428.93795,141.67042 C 428.95137,142.43502 428.54391,143.15854 427.13544,143.15854 L 426.29706,143.15854 L 426.29706,140.29758 z M 488.94471,140.29758 L 489.79357,140.29758 C 491.06789,140.29758 491.58266,140.81193 491.59607,141.67042 C 491.60949,142.43502 491.20203,143.15854 489.79357,143.15854 L 488.94471,143.15854 L 488.94471,140.29758 z M 407.05633,140.34998 L 408.59685,140.34998 C 409.7907,140.34999 410.15832,141.07308 410.15832,141.74378 C 410.15832,142.65593 409.52368,143.1795 408.54445,143.1795 L 407.05633,143.1795 L 407.05633,140.34998 z M 399.64719,141.12548 L 401.12482,144.43706 L 398.28483,144.43706 L 399.64719,141.12548 z M 436.97588,141.12548 L 438.45351,144.43706 L 435.61352,144.43706 L 436.97588,141.12548 z M 412.74681,144.7305 L 412.74681,145.97758 L 416.006,145.97758 L 416.006,144.7305 L 412.74681,144.7305 z"
       id="path4734" />
    <path
       style="opacity:1;fill:#2e3436;fill-opacity:1;fill-rule:nonzero;stroke:none;stroke-width:2.49468255px;stroke-linecap:butt;stroke-linejoin:miter;marker:none;marker-start:none;marker-mid:none;marker-end:none;stroke-miterlimit:4;stroke-dashoffset:0;stroke-opacity:1;visibility:visible;display:inline;overflow:visible;enable-background:accumulate"
       d="M 77.07852,1091.3125 L 8.23477,1091.375 L 107.10977,1262.625 L 8.29727,1436.0938 L 68.04727,1436.0938 L 166.76602,1262.8125 L 67.89102,1091.5625 L 74.32852,1091.5625 L 173.10977,1262.625 L 74.29727,1436.0938 L 136.04727,1436.0938 L 234.76602,1262.8125 L 135.89102,1091.5625 L 141.98477,1091.5625 L 240.76602,1262.6562 L 141.95352,1436.125 L 210.73477,1436.125 L 274.98477,1321.9375 L 340.89102,1436.0938 L 409.67232,1436.125 L 210.73477,1091.3438 L 143.10977,1091.4062 L 143.07852,1091.3125 L 77.10977,1091.375 L 77.07852,1091.3125 z M 18.54727,1443.1875 C 13.54728,1443.1875 10.26602,1446.0287 10.26602,1450.4688 C 10.26599,1457.9487 22.07852,1458.61 22.07852,1464.25 C 22.0785,1465.77 20.68102,1467.6875 17.64102,1467.6875 C 14.96101,1467.6875 12.42227,1466.2788 10.42227,1463.7188 L 10.42227,1468.6875 C 12.70227,1470.4075 15.11852,1471.1875 18.07852,1471.1875 C 22.4785,1471.1875 25.70352,1468.0925 25.70352,1463.8125 C 25.70355,1455.1325 13.92227,1455.2087 13.92227,1449.9688 C 13.92229,1448.0487 15.71477,1446.7188 18.23477,1446.7188 C 20.07478,1446.7187 22.32102,1447.3625 24.64102,1449.5625 L 24.64102,1445.125 C 22.72101,1443.845 20.62727,1443.1875 18.54727,1443.1875 z M 339.42232,1443.1875 C 330.58228,1443.1875 324.76602,1449.6275 324.76602,1457.1875 C 324.76604,1464.5875 330.40853,1471.1875 339.32852,1471.1875 C 348.56852,1471.1875 354.07852,1464.5475 354.07852,1457.1875 C 354.07852,1449.5875 348.42222,1443.1875 339.42232,1443.1875 z M 77.64102,1443.4062 L 65.92227,1470.8438 L 69.92227,1470.8438 L 73.39102,1462.8125 L 84.98477,1462.8125 L 88.60977,1470.8438 L 92.60977,1470.8438 L 80.42227,1443.4062 L 77.64102,1443.4062 z M 199.70352,1443.4062 L 187.95352,1470.8438 L 191.95352,1470.8438 L 195.42227,1462.8125 L 207.01602,1462.8125 L 210.64102,1470.8438 L 214.64102,1470.8438 L 202.45352,1443.4062 L 199.70352,1443.4062 z M 33.82852,1443.5625 L 33.82852,1470.8438 L 37.48477,1470.8438 L 37.48477,1449.8438 L 55.73477,1470.8438 L 59.10977,1470.8438 L 59.10977,1443.5625 L 55.42227,1443.5625 L 55.42227,1464.6875 L 36.92227,1443.5625 L 33.82852,1443.5625 z M 99.29727,1443.5625 L 99.29727,1470.8438 L 103.20352,1470.8438 L 103.20352,1459.0312 L 107.29727,1459.0312 C 113.61729,1459.0312 116.48477,1455.6862 116.48477,1451.4062 C 116.48479,1447.0862 113.75726,1443.5625 107.79727,1443.5625 L 99.29727,1443.5625 z M 140.45352,1443.5625 L 140.45352,1470.8438 L 144.39102,1470.8438 L 144.39102,1458.1562 L 155.01602,1458.1562 L 155.01602,1454.6562 L 144.39102,1454.6562 L 144.39102,1447.0938 L 155.01602,1447.0938 L 155.01602,1443.5625 L 140.45352,1443.5625 z M 163.07852,1443.5625 L 163.07852,1470.8438 L 166.98477,1470.8438 L 166.98477,1459 L 168.64102,1459 C 170.64103,1459 172.29102,1459.65 175.89102,1465.25 L 179.48477,1470.8438 L 184.17227,1470.8438 C 182.29226,1468.2438 181.61352,1467.3175 180.45352,1465.4375 C 178.37354,1462.0375 176.83977,1459.515 174.35977,1457.875 C 177.27974,1456.715 178.92227,1454.3475 178.92227,1451.1875 C 178.92225,1446.4675 175.47351,1443.5625 169.95352,1443.5625 L 163.07852,1443.5625 z M 221.42227,1443.5625 L 221.42227,1470.8438 L 225.35977,1470.8438 L 225.35977,1449.5938 L 225.42227,1449.5938 L 233.82852,1460.1562 L 234.48477,1460.1562 L 242.89102,1449.5938 L 242.95352,1449.5938 L 242.95352,1470.8438 L 246.89102,1470.8438 L 246.89102,1443.5625 L 243.23477,1443.5625 L 234.14102,1454.75 L 225.10977,1443.5625 L 221.42227,1443.5625 z M 256.57852,1443.5625 L 256.57852,1470.8438 L 272.42227,1470.8438 L 272.42227,1467.3125 L 260.51602,1467.3125 L 260.51602,1458.8438 L 271.67227,1458.8438 L 271.67227,1455.3125 L 260.51602,1455.3125 L 260.51602,1447.0938 L 272.07852,1447.0938 L 272.07852,1443.5625 L 256.57852,1443.5625 z M 277.42227,1443.5625 L 288.45352,1471.0938 L 289.23477,1471.0938 L 298.26602,1448.75 L 307.23477,1471.0938 L 307.98477,1471.0938 L 319.04727,1443.5625 L 315.17227,1443.5625 L 307.73477,1462.375 L 300.14102,1443.5625 L 296.42227,1443.5625 L 288.85977,1462.375 L 281.32852,1443.5625 L 277.42227,1443.5625 z M 362.76602,1443.5625 L 362.76602,1470.8438 L 366.70352,1470.8438 L 366.70352,1459 L 368.32852,1459 C 370.32852,1459 371.97852,1459.65 375.57852,1465.25 L 379.17232,1470.8438 L 383.85972,1470.8438 C 381.97982,1468.2438 381.30102,1467.3175 380.14102,1465.4375 C 378.06102,1462.0375 376.52722,1459.515 374.04732,1457.875 C 376.96732,1456.715 378.60972,1454.3475 378.60972,1451.1875 C 378.60972,1446.4675 375.16102,1443.5625 369.64102,1443.5625 L 362.76602,1443.5625 z M 390.67232,1443.5625 L 390.67232,1470.8438 L 394.57852,1470.8438 L 394.57852,1457.375 L 408.45352,1470.8438 L 413.85972,1470.8438 L 399.04732,1456.4688 L 410.92232,1443.5625 L 406.04732,1443.5625 L 394.57852,1456.0312 L 394.57852,1443.5625 L 390.67232,1443.5625 z M 339.42232,1446.8125 C 345.54222,1446.8125 350.04722,1451.1875 350.04732,1457.1875 C 350.04722,1463.1475 345.54222,1467.5938 339.42232,1467.5938 C 333.34228,1467.5937 328.79727,1463.1475 328.79727,1457.1875 C 328.79725,1451.1875 333.34228,1446.8125 339.42232,1446.8125 z M 166.98477,1446.9375 L 169.51602,1446.9375 C 173.31602,1446.9375 174.85102,1448.4713 174.89102,1451.0312 C 174.93104,1453.3112 173.71602,1455.4688 169.51602,1455.4688 L 166.98477,1455.4688 L 166.98477,1446.9375 z M 366.70352,1446.9375 L 369.20352,1446.9375 C 373.00352,1446.9375 374.53852,1448.4713 374.57852,1451.0312 C 374.61852,1453.3112 373.40352,1455.4688 369.20352,1455.4688 L 366.70352,1455.4688 L 366.70352,1446.9375 z M 103.20352,1447.0938 L 107.79727,1447.0938 C 111.35727,1447.0938 112.45352,1449.25 112.45352,1451.25 C 112.45351,1453.97 110.56102,1455.5312 107.64102,1455.5312 L 103.20352,1455.5312 L 103.20352,1447.0938 z M 78.98477,1449.4062 L 83.39102,1459.2812 L 74.89102,1459.2812 L 78.98477,1449.4062 z M 201.01602,1449.4062 L 205.42227,1459.2812 L 196.92227,1459.2812 L 201.01602,1449.4062 z M 122.29727,1460.1562 L 122.29727,1463.875 L 132.01602,1463.875 L 132.01602,1460.1562 L 122.29727,1460.1562 z"
       id="path4774"
       inkscape:export-filename="/media/webbox/snapframework.com/w1/img/logo-2.png"
       inkscape:export-xdpi="90"
       inkscape:export-ydpi="90" />
    <path
       style="opacity:1;fill:#2e3436;fill-opacity:1;fill-rule:nonzero;stroke:none;stroke-width:2.49468255px;stroke-linecap:butt;stroke-linejoin:miter;marker:none;marker-start:none;marker-mid:none;marker-end:none;stroke-miterlimit:4;stroke-dashoffset:0;stroke-opacity:1;visibility:visible;display:inline;overflow:visible;enable-background:accumulate"
       d="M 398.77149,1090.4247 L 377.04686,1090.4444 L 408.24829,1144.4848 L 377.06658,1199.2254 L 395.92155,1199.2254 L 427.07367,1144.544 L 395.87225,1090.5036 L 397.90369,1090.5036 L 429.07553,1144.4848 L 397.89383,1199.2254 L 417.37993,1199.2254 L 448.53205,1144.544 L 417.33062,1090.5036 L 419.25359,1090.5036 L 450.42543,1144.4947 L 419.24373,1199.2352 L 440.94864,1199.2352 L 461.22365,1163.2017 L 482.02131,1199.2254 L 503.72623,1199.2352 L 440.94864,1090.4346 L 419.6086,1090.4543 L 419.59874,1090.4247 L 398.78136,1090.4444 L 398.77149,1090.4247 z M 380.30112,1201.4639 C 378.7233,1201.4639 377.68785,1202.3605 377.68785,1203.7616 C 377.68785,1206.122 381.41546,1206.3307 381.41546,1208.1105 C 381.41545,1208.5901 380.97446,1209.1952 380.01514,1209.1952 C 379.16943,1209.1952 378.36829,1208.7507 377.73716,1207.9428 L 377.73716,1209.5108 C 378.45665,1210.0536 379.21913,1210.2997 380.1532,1210.2997 C 381.54168,1210.2997 382.55938,1209.323 382.55938,1207.9724 C 382.55939,1205.2333 378.84163,1205.2574 378.84163,1203.6038 C 378.84164,1202.9979 379.40729,1202.5783 380.20251,1202.5783 C 380.78315,1202.5782 381.49198,1202.7814 382.22409,1203.4756 L 382.22409,1202.0753 C 381.61821,1201.6714 380.95749,1201.4639 380.30112,1201.4639 z M 481.55784,1201.4639 C 478.76824,1201.4639 476.93284,1203.4961 476.93284,1205.8818 C 476.93284,1208.217 478.71341,1210.2997 481.52824,1210.2997 C 484.44406,1210.2997 486.18282,1208.2044 486.18282,1205.8818 C 486.18282,1203.4835 484.39789,1201.4639 481.55784,1201.4639 z M 398.949,1201.5329 L 395.25098,1210.1912 L 396.51324,1210.1912 L 397.60785,1207.6568 L 401.26642,1207.6568 L 402.41035,1210.1912 L 403.6726,1210.1912 L 399.82666,1201.5329 L 398.949,1201.5329 z M 437.46757,1201.5329 L 433.75969,1210.1912 L 435.02195,1210.1912 L 436.11656,1207.6568 L 439.77514,1207.6568 L 440.91906,1210.1912 L 442.18132,1210.1912 L 438.33538,1201.5329 L 437.46757,1201.5329 z M 385.12334,1201.5822 L 385.12334,1210.1912 L 386.27712,1210.1912 L 386.27712,1203.5644 L 392.03617,1210.1912 L 393.1012,1210.1912 L 393.1012,1201.5822 L 391.93755,1201.5822 L 391.93755,1208.2485 L 386.09961,1201.5822 L 385.12334,1201.5822 z M 405.78294,1201.5822 L 405.78294,1210.1912 L 407.01561,1210.1912 L 407.01561,1206.4636 L 408.30745,1206.4636 C 410.30183,1206.4636 411.2067,1205.408 411.2067,1204.0574 C 411.20671,1202.6942 410.346,1201.5822 408.46524,1201.5822 L 405.78294,1201.5822 z M 418.77038,1201.5822 L 418.77038,1210.1912 L 420.01292,1210.1912 L 420.01292,1206.1875 L 423.36579,1206.1875 L 423.36579,1205.083 L 420.01292,1205.083 L 420.01292,1202.6966 L 423.36579,1202.6966 L 423.36579,1201.5822 L 418.77038,1201.5822 z M 425.91003,1201.5822 L 425.91003,1210.1912 L 427.1427,1210.1912 L 427.1427,1206.4538 L 427.66536,1206.4538 C 428.29649,1206.4538 428.81717,1206.6589 429.9532,1208.426 L 431.08726,1210.1912 L 432.56646,1210.1912 C 431.9732,1209.3708 431.75901,1209.0785 431.39296,1208.4852 C 430.73659,1207.4123 430.25259,1206.6163 429.46999,1206.0987 C 430.39142,1205.7327 430.90975,1204.9856 430.90975,1203.9884 C 430.90974,1202.4989 429.82144,1201.5822 428.07953,1201.5822 L 425.91003,1201.5822 z M 444.32123,1201.5822 L 444.32123,1210.1912 L 445.56377,1210.1912 L 445.56377,1203.4855 L 445.58349,1203.4855 L 448.23621,1206.8186 L 448.4433,1206.8186 L 451.09601,1203.4855 L 451.11573,1203.4855 L 451.11573,1210.1912 L 452.35827,1210.1912 L 452.35827,1201.5822 L 451.20448,1201.5822 L 448.33482,1205.1126 L 445.48488,1201.5822 L 444.32123,1201.5822 z M 455.41529,1201.5822 L 455.41529,1210.1912 L 460.41501,1210.1912 L 460.41501,1209.0769 L 456.65783,1209.0769 L 456.65783,1206.4045 L 460.17834,1206.4045 L 460.17834,1205.2901 L 456.65783,1205.2901 L 456.65783,1202.6966 L 460.30654,1202.6966 L 460.30654,1201.5822 L 455.41529,1201.5822 z M 461.99284,1201.5822 L 465.47391,1210.2701 L 465.72044,1210.2701 L 468.57038,1203.2192 L 471.4006,1210.2701 L 471.63727,1210.2701 L 475.1282,1201.5822 L 473.90539,1201.5822 L 471.55838,1207.5188 L 469.16206,1201.5822 L 467.98856,1201.5822 L 465.60211,1207.5188 L 463.22551,1201.5822 L 461.99284,1201.5822 z M 488.92428,1201.5822 L 488.92428,1210.1912 L 490.16682,1210.1912 L 490.16682,1206.4538 L 490.67961,1206.4538 C 491.31074,1206.4538 491.83142,1206.6589 492.96745,1208.426 L 494.10152,1210.1912 L 495.5807,1210.1912 C 494.98747,1209.3708 494.77326,1209.0785 494.40721,1208.4852 C 493.75084,1207.4123 493.26682,1206.6163 492.48426,1206.0987 C 493.4057,1205.7327 493.92399,1204.9856 493.92399,1203.9884 C 493.92399,1202.4989 492.8357,1201.5822 491.09378,1201.5822 L 488.92428,1201.5822 z M 497.73051,1201.5822 L 497.73051,1210.1912 L 498.96317,1210.1912 L 498.96317,1205.941 L 503.34163,1210.1912 L 505.04763,1210.1912 L 500.37337,1205.655 L 504.12069,1201.5822 L 502.58232,1201.5822 L 498.96317,1205.5169 L 498.96317,1201.5822 L 497.73051,1201.5822 z M 481.55784,1202.6078 C 483.48906,1202.6078 484.91068,1203.9884 484.91071,1205.8818 C 484.91068,1207.7626 483.48906,1209.1657 481.55784,1209.1657 C 479.6392,1209.1656 478.20495,1207.7626 478.20495,1205.8818 C 478.20495,1203.9884 479.6392,1202.6078 481.55784,1202.6078 z M 427.1427,1202.6473 L 427.94147,1202.6473 C 429.14062,1202.6473 429.62501,1203.1313 429.63763,1203.9391 C 429.65026,1204.6586 429.26684,1205.3394 427.94147,1205.3394 L 427.1427,1205.3394 L 427.1427,1202.6473 z M 490.16682,1202.6473 L 490.95573,1202.6473 C 492.15487,1202.6473 492.63926,1203.1313 492.65189,1203.9391 C 492.66451,1204.6586 492.28109,1205.3394 490.95573,1205.3394 L 490.16682,1205.3394 L 490.16682,1202.6473 z M 407.01561,1202.6966 L 408.46524,1202.6966 C 409.58864,1202.6966 409.93458,1203.377 409.93458,1204.0081 C 409.93458,1204.8665 409.33738,1205.3591 408.41593,1205.3591 L 407.01561,1205.3591 L 407.01561,1202.6966 z M 399.37304,1203.4263 L 400.76349,1206.5425 L 398.0812,1206.5425 L 399.37304,1203.4263 z M 437.88175,1203.4263 L 439.2722,1206.5425 L 436.58991,1206.5425 L 437.88175,1203.4263 z M 413.04092,1206.8186 L 413.04092,1207.9921 L 416.10781,1207.9921 L 416.10781,1206.8186 L 413.04092,1206.8186 z"
       id="path5376"
       inkscape:export-filename="/media/webbox/snapframework.com/w1/img/logo-2.png"
       inkscape:export-xdpi="90"
       inkscape:export-ydpi="90" />
    <path
       style="fill:#2e3436;fill-opacity:1;fill-rule:nonzero;stroke:none;stroke-width:2.49468255px;stroke-linecap:butt;stroke-linejoin:miter;marker:none;marker-start:none;marker-mid:none;marker-end:none;stroke-miterlimit:4;stroke-dashoffset:0;stroke-opacity:1;visibility:visible;display:inline;overflow:visible;enable-background:accumulate"
       d="M 192.01599,1638.4688 L 192.01599,1679.5625 C 169.53328,1655.6429 143.78486,1645.137 117.70349,1669.25 L 90.79724,1696.1562 L 119.85974,1725.2188 C 87.0386,1724.1976 61.40816,1734.9687 60.01599,1770.4688 L 60.01599,1808.5312 L 101.10974,1808.5312 C 77.1901,1831.014 66.68426,1856.7622 90.79724,1882.8438 L 117.70349,1909.75 L 146.76599,1880.6875 C 145.74486,1913.5086 156.51591,1939.1391 192.01599,1940.5312 L 230.07849,1940.5312 L 230.07849,1899.4375 C 252.5612,1923.3571 278.30962,1933.863 304.39099,1909.75 L 331.29724,1882.8438 L 302.23474,1853.7812 C 335.05629,1854.8028 360.68633,1844.0316 362.07849,1808.5312 L 362.07849,1770.4688 L 320.98474,1770.4688 C 344.90144,1747.987 355.40881,1722.2361 331.29724,1696.1562 L 304.39099,1669.25 L 275.32849,1698.3125 C 276.34963,1665.4914 265.57856,1639.8609 230.07849,1638.4688 L 192.01599,1638.4688 z M 195.42224,1665.4688 L 226.67224,1665.4688 C 255.82431,1666.612 264.6661,1687.6734 263.82849,1714.625 L 287.70349,1690.75 L 309.79724,1712.8438 C 329.59796,1734.2609 320.96889,1755.4126 301.32849,1773.875 L 335.07849,1773.875 L 335.07849,1805.125 C 333.93572,1834.2658 312.89006,1843.1423 285.95349,1842.3125 L 309.79724,1866.1562 L 287.70349,1888.25 C 266.28226,1908.0545 245.13716,1899.4298 226.67224,1879.7812 L 226.67224,1913.5312 L 195.42224,1913.5312 C 166.26708,1912.3879 157.42625,1891.3307 158.26599,1864.375 L 134.39099,1888.25 L 112.29724,1866.1562 C 92.49272,1844.735 101.11757,1823.5899 120.76599,1805.125 L 87.01599,1805.125 L 87.01599,1773.875 C 88.15922,1744.7229 109.22063,1735.8811 136.17224,1736.7188 L 112.29724,1712.8438 L 134.39099,1690.75 C 155.81657,1670.9414 176.95466,1679.5931 195.42224,1699.25 L 195.42224,1665.4688 z M 254.45349,1770.4688 L 254.45349,1808 L 263.10974,1808 L 263.10974,1793.5625 L 292.01599,1793.5625 L 292.01599,1784.9062 L 291.98474,1784.9062 L 291.98474,1779.125 L 292.01599,1779.125 L 292.01599,1770.4688 L 291.98474,1770.4688 L 283.32849,1770.4688 L 263.10974,1770.4688 L 254.45349,1770.4688 z M 130.07849,1770.8438 L 130.07849,1792.8438 L 130.07849,1793.9375 L 158.95349,1793.9375 L 158.95349,1799.7188 L 130.07849,1799.7188 L 130.07849,1808.375 L 167.64099,1808.375 L 167.64099,1799.7188 L 167.64099,1793.9375 L 167.64099,1785.25 L 138.73474,1785.25 L 138.73474,1779.5 L 158.95349,1779.5 L 167.64099,1779.5 L 167.64099,1770.8438 L 158.95349,1770.8438 L 138.73474,1770.8438 L 130.07849,1770.8438 z M 212.98474,1770.9688 L 212.98474,1808.5312 L 221.64099,1808.5312 L 221.64099,1794.0625 L 241.85974,1794.0625 L 241.85974,1808.5312 L 250.51599,1808.5312 L 250.51599,1794.0625 L 250.54724,1794.0625 L 250.54724,1785.4062 L 250.51599,1785.4062 L 250.51599,1779.625 L 250.54724,1779.625 L 250.54724,1770.9688 L 250.51599,1770.9688 L 241.85974,1770.9688 L 221.64099,1770.9688 L 212.98474,1770.9688 z M 171.54724,1771 L 171.54724,1808.5312 L 180.20349,1808.5312 L 180.20349,1779.6875 L 200.42224,1779.6875 L 200.42224,1808.5312 L 209.07849,1808.5312 L 209.07849,1779.6875 L 209.10974,1779.6875 L 209.10974,1771 L 209.07849,1771 L 200.42224,1771 L 180.20349,1771 L 171.54724,1771 z M 263.10974,1779.125 L 283.32849,1779.125 L 283.32849,1784.9062 L 263.10974,1784.9062 L 263.10974,1779.125 z M 221.64099,1779.625 L 241.85974,1779.625 L 241.85974,1785.4062 L 221.64099,1785.4062 L 221.64099,1779.625 z"
       id="rect5767"
       inkscape:export-filename="/media/webbox/snapframework.com/w1/img/logo-3.png"
       inkscape:export-xdpi="90"
       inkscape:export-ydpi="90" />
    <path
       style="fill:#2e3436;fill-opacity:1;fill-rule:nonzero;stroke:none;stroke-width:2.49468255px;stroke-linecap:butt;stroke-linejoin:miter;marker:none;marker-start:none;marker-mid:none;marker-end:none;stroke-miterlimit:4;stroke-dashoffset:0;stroke-opacity:1;visibility:visible;display:inline;overflow:visible;enable-background:accumulate"
       d="M 433.10475,1612.331 L 433.10475,1629.481 C 423.72184,1619.4984 412.97602,1615.1139 402.09124,1625.1772 L 390.86221,1636.4062 L 402.99113,1648.5351 C 389.29358,1648.109 378.597,1652.6042 378.01599,1667.4197 L 378.01599,1683.3047 L 395.16602,1683.3047 C 385.18342,1692.6876 380.79892,1703.4333 390.86221,1714.3182 L 402.09124,1725.5472 L 414.22016,1713.4183 C 413.794,1727.1158 418.28918,1737.8125 433.10475,1738.3934 L 448.98973,1738.3934 L 448.98973,1721.2434 C 458.37264,1731.226 469.11846,1735.6105 480.00324,1725.5472 L 491.23227,1714.3182 L 479.10335,1702.1893 C 492.80107,1702.6156 503.49749,1698.1204 504.07849,1683.3047 L 504.07849,1667.4197 L 486.92846,1667.4197 C 496.90983,1658.0372 501.29497,1647.2903 491.23227,1636.4062 L 480.00324,1625.1772 L 467.87432,1637.3061 C 468.30048,1623.6086 463.80529,1612.9119 448.98973,1612.331 L 433.10475,1612.331 z M 434.52632,1623.5991 L 447.56816,1623.5991 C 459.73446,1624.0762 463.42449,1632.866 463.07492,1644.1139 L 473.03889,1634.15 L 482.25948,1643.3706 C 490.52309,1652.3088 486.92185,1661.1362 478.72514,1668.8413 L 492.81033,1668.8413 L 492.81033,1681.8831 C 492.33341,1694.0447 483.55023,1697.7492 472.30855,1697.4029 L 482.25948,1707.3538 L 473.03889,1716.5744 C 464.09898,1724.8396 455.2743,1721.2402 447.56816,1713.0401 L 447.56816,1727.1253 L 434.52632,1727.1253 C 422.35873,1726.6481 418.6691,1717.8601 419.01956,1706.6105 L 409.05559,1716.5744 L 399.835,1707.3538 C 391.5698,1698.4139 395.16929,1689.5892 403.36934,1681.8831 L 389.28415,1681.8831 L 389.28415,1668.8413 C 389.76126,1656.675 398.55101,1652.9849 409.79897,1653.3345 L 399.835,1643.3706 L 409.05559,1634.15 C 417.99732,1625.8831 426.81907,1629.4938 434.52632,1637.6973 L 434.52632,1623.5991 z M 459.16237,1667.4197 L 459.16237,1683.083 L 462.77496,1683.083 L 462.77496,1677.0576 L 474.83867,1677.0576 L 474.83867,1673.445 L 474.82563,1673.445 L 474.82563,1671.0323 L 474.83867,1671.0323 L 474.83867,1667.4197 L 474.82563,1667.4197 L 471.21303,1667.4197 L 462.77496,1667.4197 L 459.16237,1667.4197 z M 407.25581,1667.5762 L 407.25581,1676.7577 L 407.25581,1677.2141 L 419.30648,1677.2141 L 419.30648,1679.6269 L 407.25581,1679.6269 L 407.25581,1683.2395 L 422.93211,1683.2395 L 422.93211,1679.6269 L 422.93211,1677.2141 L 422.93211,1673.5885 L 410.8684,1673.5885 L 410.8684,1671.1888 L 419.30648,1671.1888 L 422.93211,1671.1888 L 422.93211,1667.5762 L 419.30648,1667.5762 L 410.8684,1667.5762 L 407.25581,1667.5762 z M 441.85583,1667.6284 L 441.85583,1683.3047 L 445.46843,1683.3047 L 445.46843,1677.2663 L 453.9065,1677.2663 L 453.9065,1683.3047 L 457.51909,1683.3047 L 457.51909,1677.2663 L 457.53214,1677.2663 L 457.53214,1673.6537 L 457.51909,1673.6537 L 457.51909,1671.241 L 457.53214,1671.241 L 457.53214,1667.6284 L 457.51909,1667.6284 L 453.9065,1667.6284 L 445.46843,1667.6284 L 441.85583,1667.6284 z M 424.56234,1667.6414 L 424.56234,1683.3047 L 428.17494,1683.3047 L 428.17494,1671.2671 L 436.61301,1671.2671 L 436.61301,1683.3047 L 440.2256,1683.3047 L 440.2256,1671.2671 L 440.23865,1671.2671 L 440.23865,1667.6414 L 440.2256,1667.6414 L 436.61301,1667.6414 L 428.17494,1667.6414 L 424.56234,1667.6414 z M 462.77496,1671.0323 L 471.21303,1671.0323 L 471.21303,1673.445 L 462.77496,1673.445 L 462.77496,1671.0323 z M 445.46843,1671.241 L 453.9065,1671.241 L 453.9065,1673.6537 L 445.46843,1673.6537 L 445.46843,1671.241 z"
       id="path6667"
       inkscape:export-filename="/media/webbox/snapframework.com/w1/img/logo-3.png"
       inkscape:export-xdpi="90"
       inkscape:export-ydpi="90" />
  </g>
</svg>
